<svg width="24" height="24" viewBox="0 0 24 24" fill="none" xmlns="http://www.w3.org/2000/svg">
<path d="M17.6836 9.27961L12.9054 2.16964C12.8034 2.02608 12.6675 1.90953 12.5096 1.83018C12.3518 1.75083 12.1768 1.71109 11.9999 1.71443C11.6508 1.71443 11.3018 1.86617 11.0945 2.18048L6.3163 9.27961H1.09085C0.490848 9.27961 -6.10352e-05 9.76734 -6.10352e-05 10.3635C-6.10352e-05 10.461 0.010848 10.5585 0.0435753 10.6561L2.81448 20.7033C3.06539 21.6137 3.90539 22.2857 4.90903 22.2857H19.0908C20.0945 22.2857 20.9345 21.6137 21.1963 20.7033L23.9672 10.6561L23.9999 10.3635C23.9999 9.76734 23.509 9.27961 22.909 9.27961H17.6836ZM8.72721 9.27961L11.9999 4.51073L15.2727 9.27961H8.72721ZM11.9999 17.9503C10.7999 17.9503 9.81812 16.9749 9.81812 15.7826C9.81812 14.5904 10.7999 13.615 11.9999 13.615C13.1999 13.615 14.1818 14.5904 14.1818 15.7826C14.1818 16.9749 13.1999 17.9503 11.9999 17.9503Z" fill="white"/>
</svg>
